<svg width="213" height="96" viewBox="0 0 213 96" fill="none" xmlns="http://www.w3.org/2000/svg">
<path d="M52.5229 11.0167C49.2756 10.1433 45.9433 12.0337 45.0787 15.2399C44.3899 17.7956 45.4802 20.4128 47.5933 21.8137C47.0628 23.2351 45.659 24.126 44.1701 24.0293L43.5781 26.2333L52.6254 28.6687L53.2174 26.4648C51.881 25.8024 51.1132 24.3253 51.3681 22.8306C53.8974 22.6782 56.1541 20.9608 56.8428 18.4052C57.7045 15.1989 55.7731 11.8901 52.5258 11.0167H52.5229ZM54.9232 17.8894C54.3429 20.0493 52.095 21.3242 49.9057 20.7351C47.7164 20.1461 46.4151 17.9157 46.9954 15.7557C47.5757 13.5958 49.8236 12.3209 52.0129 12.91C54.2022 13.4991 55.5035 15.7294 54.9232 17.8894Z" fill="#FF7F00"/>
<path d="M44.1701 24.0321L43.5781 26.2361L48.1032 27.4524L49.9115 20.7379C47.7222 20.1489 46.421 17.9185 47.0013 15.7586C47.5816 13.5986 49.8295 12.3237 52.0188 12.9128L52.5287 11.0195C49.2814 10.1461 45.9491 12.0365 45.0845 15.2427C44.3958 17.7984 45.4861 20.4156 47.5991 21.8165C47.0687 23.2379 45.6648 24.1289 44.176 24.0321H44.1701Z" fill="#F9EDBF"/>
<path d="M41.7766 77.9701C56.6987 77.9701 68.7955 65.8734 68.7955 50.9513C68.7955 36.0292 56.6987 23.9325 41.7766 23.9325C26.8546 23.9325 14.7578 36.0292 14.7578 50.9513C14.7578 65.8734 26.8546 77.9701 41.7766 77.9701Z" fill="#F9EDBF"/>
<path d="M66.4464 57.588C70.0671 44.1319 61.9545 30.2509 48.3264 26.584C34.6984 22.917 20.7155 30.8527 17.0949 44.3089C13.4742 57.765 21.5868 71.646 35.2148 75.3129C48.8429 78.9798 62.8258 71.0441 66.4464 57.588Z" fill="#583A35"/>
<path d="M61.922 56.3697C64.8786 45.3816 58.255 34.0468 47.1278 31.0528C36.0006 28.0588 24.5834 34.5393 21.6268 45.5274C18.6702 56.5155 25.2938 67.8502 36.421 70.8442C47.5482 73.8383 58.9654 67.3578 61.922 56.3697Z" fill="#F9EDBF"/>
<path d="M45.1218 49.3629L50.9717 66.9212L38.721 53.0498C38.5921 52.9033 38.4924 52.7303 38.428 52.5428L32.5781 34.9845L44.8288 48.8559C44.9607 49.0024 45.0574 49.1753 45.1218 49.3629Z" fill="#FF7F00"/>
<path d="M32.5781 34.9845L38.428 52.5428C38.4895 52.7303 38.5891 52.9033 38.721 53.0498L50.9717 66.9212L32.5811 34.9874L32.5781 34.9845Z" fill="#583A35"/>
<path d="M43.1372 53.3195C44.4627 52.5561 44.9262 50.8764 44.1725 49.5677C43.4188 48.2591 41.7333 47.8171 40.4078 48.5805C39.0823 49.3439 38.6188 51.0236 39.3725 52.3323C40.1263 53.6409 41.8118 54.0829 43.1372 53.3195Z" fill="#F9EDBF"/>
<path d="M42.5565 52.3113C43.3181 51.8727 43.5845 50.9076 43.1515 50.1558C42.7185 49.404 41.75 49.1501 40.9884 49.5888C40.2268 50.0275 39.9604 50.9925 40.3934 51.7443C40.8264 52.4961 41.7948 52.75 42.5565 52.3113Z" fill="#583A35"/>
<path d="M45.6412 36.5701L45.3452 40.3508L44 39.9874L45.6412 36.5701Z" fill="#FF7F00"/>
<path d="M37.8984 65.3327L39.5397 61.9154L38.1944 61.552L37.8984 65.3327Z" fill="#FF7F00"/>
<path d="M56.1557 54.8201L52.375 54.5241L52.7355 53.1818L56.1557 54.8201Z" fill="#FF7F00"/>
<path d="M27.3906 47.0798L30.8079 48.7211L31.1684 47.3788L27.3906 47.0798Z" fill="#FF7F00"/>
<path d="M184.813 51.5962V57.0855L188.509 51.5962H190.637V59.2953H188.902V53.806L185.206 59.2953H183.078V51.5962H184.813Z" fill="#FFF2EC"/>
<path d="M175.423 51.5962V57.0855L179.118 51.5962H181.246V59.2953H179.511V53.806L175.815 59.2953H173.688V51.5962H175.423Z" fill="#FFF2EC"/>
<path d="M172.223 56.9155C171.76 58.7502 170.136 59.5767 168.372 59.5767C165.699 59.5767 164.172 57.7274 164.172 55.4472C164.172 53.0528 165.837 51.3177 168.372 51.3177C169.94 51.3177 171.648 51.9772 172.223 53.9789L170.543 54.5387C170.262 53.5158 169.424 53 168.372 53C166.818 53 165.922 54.1049 165.922 55.4501C165.922 56.7954 166.818 57.9003 168.372 57.9003C169.365 57.9003 170.233 57.4372 170.543 56.3616L172.223 56.9214V56.9155Z" fill="#FFF2EC"/>
<path d="M162.973 56.9155C162.51 58.7502 160.886 59.5767 159.122 59.5767C156.449 59.5767 154.922 57.7274 154.922 55.4472C154.922 53.0528 156.589 51.3177 159.122 51.3177C160.69 51.3177 162.398 51.9772 162.973 53.9789L161.293 54.5387C161.012 53.5158 160.174 53 159.125 53C157.571 53 156.674 54.1049 156.674 55.4501C156.674 56.7954 157.571 57.9003 159.125 57.9003C160.118 57.9003 160.986 57.4372 161.293 56.3616L162.973 56.9214V56.9155Z" fill="#FFF2EC"/>
<path d="M153.616 57.405C153.071 58.8176 151.503 59.5737 149.809 59.5737C147.136 59.5737 145.609 57.7244 145.609 55.4443C145.609 52.9531 147.415 51.3148 149.809 51.3148C151.629 51.3148 153.687 52.282 153.857 55.2479L153.871 56.2004H147.459C147.711 57.235 148.552 57.9501 149.812 57.9501C150.806 57.9501 151.659 57.5017 151.913 56.8452L153.622 57.405H153.616ZM147.456 54.6618H151.893C151.808 53.4308 150.8 52.9385 149.806 52.9385C148.657 52.9385 147.749 53.5979 147.453 54.6618H147.456Z" fill="#FFF2EC"/>
<path d="M139.272 48.5159V51.6518C139.735 51.3998 140.239 51.3148 140.699 51.3148C142.66 51.3148 144.618 52.912 144.618 55.4442C144.618 57.9764 142.798 59.5737 140.837 59.5737C140.362 59.5737 139.803 59.477 139.269 59.181V62.5133H137.505V59.181C136.972 59.474 136.412 59.5737 135.937 59.5737C133.976 59.5737 132.156 57.865 132.156 55.4442C132.156 53.0234 134.117 51.3148 136.078 51.3148C136.541 51.3148 137.045 51.3998 137.505 51.6518V48.5159H139.269H139.272ZM133.909 55.4442C133.909 56.7894 134.888 57.8944 136.163 57.8944C136.626 57.8944 137.13 57.7537 137.508 57.4459V53.4425C137.13 53.1348 136.626 52.9941 136.163 52.9941C134.888 52.9941 133.909 54.099 133.909 55.4442ZM139.272 57.4459C139.65 57.7537 140.154 57.8944 140.617 57.8944C141.892 57.8944 142.871 56.7894 142.871 55.4442C142.871 54.099 141.892 52.9941 140.617 52.9941C140.154 52.9941 139.65 53.1348 139.272 53.4425V57.4459Z" fill="#FFF2EC"/>
<path d="M127.044 59.5737C124.508 59.5737 122.844 57.8651 122.844 55.4443C122.844 53.0235 124.649 51.3148 127.044 51.3148C129.438 51.3148 131.243 52.9121 131.243 55.4443C131.243 57.9765 129.579 59.5737 127.044 59.5737ZM127.044 57.8944C128.459 57.8944 129.494 56.7895 129.494 55.4443C129.494 54.0991 128.456 52.9942 127.044 52.9942C125.631 52.9942 124.593 54.0991 124.593 55.4443C124.593 56.7895 125.628 57.8944 127.044 57.8944Z" fill="#FFF2EC"/>
<path d="M115.374 51.5932V52.1384C115.919 51.5932 116.663 51.3119 117.668 51.3119C120.063 51.3119 121.868 52.9092 121.868 55.4414C121.868 57.9735 120.201 59.5708 117.809 59.5708C116.956 59.5708 116.156 59.3481 115.514 58.8997V62.5104H113.75V51.5903H115.374V51.5932ZM117.809 57.8944C119.225 57.8944 120.119 56.7895 120.119 55.4443C120.119 54.0991 119.222 52.9942 117.809 52.9942C116.646 52.9942 115.4 53.7503 115.4 55.4443C115.4 57.1383 116.646 57.8944 117.809 57.8944Z" fill="#FFF2EC"/>
<path d="M111.931 51.5962V59.2953H110.196V53.2462H105.829V59.2953H104.094V51.5962H111.934H111.931Z" fill="#FFF2EC"/>
<path d="M91.7779 59.5737C89.2428 59.5737 87.5781 57.8651 87.5781 55.4443C87.5781 53.0235 89.3835 51.3148 91.7779 51.3148C94.1724 51.3148 95.9777 52.9121 95.9777 55.4443C95.9777 57.9765 94.3131 59.5737 91.7779 59.5737ZM91.7779 57.8944C93.1906 57.8944 94.2281 56.7895 94.2281 55.4443C94.2281 54.0991 93.1906 52.9942 91.7779 52.9942C90.3653 52.9942 89.3278 54.0991 89.3278 55.4443C89.3278 56.7895 90.3653 57.8944 91.7779 57.8944Z" fill="#FFF2EC"/>
<path d="M86.3056 51.5962V59.2953H84.5706V53.2462H80.2038V59.2953H78.4688V51.5962H86.3086H86.3056Z" fill="#FFF2EC"/>
<path d="M187.245 41.7722L187.216 39.8555C186.322 41.4176 184.505 42.3643 181.465 42.3643C177.86 42.3643 174.883 40.8608 174.883 37.6428C174.883 35.3128 176.463 32.9535 182.063 32.0391C183.373 31.834 185.311 31.6259 187.04 31.538C186.802 29.885 185.938 28.3229 183.227 28.3229C181.351 28.3229 179.443 29.1787 178.37 31.0075L175.331 29.2373C177.418 25.905 180.275 24.9584 183.227 24.9584C188.232 24.9584 190.645 27.7309 190.794 32.1857C190.823 33.2466 190.823 36.6698 190.823 37.9974V41.7722H187.248H187.245ZM178.754 37.3175C178.754 38.3198 179.886 38.9704 181.882 38.9704C185.574 38.9704 186.826 37.2295 187.037 34.3105C185.398 34.3691 182.954 34.6944 181.764 34.9904C180.035 35.433 178.754 36.2594 178.754 37.3204V37.3175Z" fill="#FF7F00"/>
<path d="M156.094 25.5474H173.67V29.1464H166.788V41.7721H162.975V29.1464H156.094V25.5474Z" fill="#FF7F00"/>
<path d="M145.814 42.3613C140.421 42.3613 136.875 38.7623 136.875 33.6598C136.875 28.5574 140.717 24.9584 145.814 24.9584C150.91 24.9584 154.753 28.32 154.753 33.6598C154.753 38.9997 151.206 42.3613 145.814 42.3613ZM145.814 38.8239C148.824 38.8239 151.028 36.4939 151.028 33.6598C151.028 30.8258 148.824 28.4958 145.814 28.4958C142.804 28.4958 140.6 30.8258 140.6 33.6598C140.6 36.4939 142.804 38.8239 145.814 38.8239Z" fill="#FF7F00"/>
<path d="M125.845 26.6084C130.939 26.6084 134.784 29.2051 134.784 34.2489C134.784 39.2928 131.238 42.3613 125.845 42.3613C120.452 42.3613 116.906 39.0583 116.906 34.2489C116.906 32.6868 116.906 31.6229 117.056 29.5274C117.472 23.8036 120.482 20.2046 125.397 20.2046C128.137 20.2046 130.224 19.9672 132.636 18.7598L133.975 21.799C131.056 23.068 128.732 23.4519 126.08 23.4519C122.832 23.4519 121.045 25.2221 120.778 28.6746C121.821 27.2297 123.401 26.6084 125.842 26.6084H125.845ZM125.845 38.8209C129.151 38.8209 131.059 36.784 131.059 34.2489C131.059 31.7138 129.154 29.6769 125.845 29.6769C122.536 29.6769 120.631 31.7138 120.631 34.2489C120.631 36.784 122.539 38.8209 125.845 38.8209Z" fill="#FF7F00"/>
<path d="M110.638 41.7722L110.609 39.8555C109.715 41.4176 107.898 42.3643 104.859 42.3643C101.254 42.3643 98.2734 40.8608 98.2734 37.6428C98.2734 35.3128 99.8531 32.9535 105.454 32.0391C106.764 31.834 108.701 31.6259 110.43 31.538C110.193 29.885 109.328 28.3229 106.617 28.3229C104.742 28.3229 102.834 29.1787 101.761 31.0075L98.7218 29.2373C100.809 25.905 103.666 24.9584 106.617 24.9584C111.623 24.9584 114.035 27.7309 114.185 32.1857C114.214 33.2466 114.214 36.6698 114.214 37.9974V41.7722H110.638ZM102.148 37.3175C102.148 38.3198 103.279 38.9704 105.275 38.9704C108.971 38.9704 110.219 37.2295 110.43 34.3105C108.792 34.3691 106.348 34.6944 105.158 34.9904C103.429 35.433 102.148 36.2594 102.148 37.3204V37.3175Z" fill="#FF7F00"/>
<path d="M81.9241 25.5475V26.6993C83.0847 25.5475 84.6644 24.9584 86.8097 24.9584C91.9034 24.9584 95.7486 28.32 95.7486 33.6598C95.7486 38.9997 92.2024 42.3613 87.1087 42.3613C85.2916 42.3613 83.5917 41.8895 82.2231 40.9458V46.9773H78.4688V25.5475H81.9241ZM87.1087 38.8239C90.1186 38.8239 92.0236 36.4939 92.0236 33.6598C92.0236 30.8258 90.1157 28.4958 87.1087 28.4958C84.6351 28.4958 81.9857 30.0902 81.9857 33.6598C81.9857 37.2295 84.638 38.8239 87.1087 38.8239Z" fill="#FF7F00"/>
<path d="M115.069 67.8151C115.425 67.5776 115.866 67.4589 116.379 67.4589C117.834 67.4589 118.932 68.4301 118.932 69.9695C118.932 71.509 117.919 72.4802 116.553 72.4802C115.968 72.4802 115.438 72.2936 115.039 71.9289V72.3106H114V65.7625H115.073V67.8193L115.069 67.8151ZM117.864 69.9653C117.864 69.151 117.321 68.4767 116.46 68.4767C115.752 68.4767 114.997 68.9347 114.997 69.9653C114.997 70.9959 115.752 71.4539 116.46 71.4539C117.316 71.4539 117.864 70.7838 117.864 69.9653Z" fill="#FFF2EC"/>
<path d="M120.812 67.6283L122.25 71.2501L123.687 67.6283H124.845L122.848 72.3061C122.169 73.8626 121.758 74.4308 120.74 74.4308C120.46 74.4308 120.053 74.3884 119.531 74.1764L119.82 73.1628C120.091 73.307 120.362 73.3579 120.566 73.3579C121.143 73.3579 121.448 72.9168 121.681 72.3782L119.658 67.624H120.816L120.812 67.6283Z" fill="#FFF2EC"/>
<path d="M135.039 66.0123V67.1192H131.044V68.6672H134.531V69.7402H131.044V72.306H129.938V66.0123H135.039Z" fill="#FFF2EC"/>
<path d="M139.754 71.7844C139.406 72.234 138.893 72.4715 138.155 72.4715C136.726 72.4715 135.996 71.5851 135.954 69.9608C135.945 69.6554 135.945 69.0956 135.945 68.7097V67.6198H137.01V68.7097C137.01 69.0914 137.01 69.7403 137.018 70.0456C137.044 70.8599 137.392 71.4494 138.244 71.4494C138.973 71.4494 139.716 71.0338 139.716 70.0456L139.724 68.7097V67.6198H140.797V72.2976H139.758V71.7802L139.754 71.7844Z" fill="#FFF2EC"/>
<path d="M142.612 67.6282V66.3517H143.702V67.6282H144.962V68.5994H143.702L143.711 70.1813C143.736 71.1356 143.957 71.407 144.466 71.407C144.618 71.407 144.881 71.3815 145.17 71.2967L145.458 72.2679C144.991 72.4375 144.597 72.48 144.292 72.48C142.93 72.48 142.65 71.619 142.617 70.3552L142.608 68.6037H141.586V67.6325H142.608L142.612 67.6282Z" fill="#FFF2EC"/>
<path d="M149.957 71.7844C149.609 72.234 149.096 72.4715 148.358 72.4715C146.929 72.4715 146.199 71.5851 146.157 69.9608C146.148 69.6554 146.148 69.0956 146.148 68.7097V67.6198H147.213V68.7097C147.213 69.0914 147.213 69.7403 147.221 70.0456C147.247 70.8599 147.595 71.4494 148.447 71.4494C149.177 71.4494 149.919 71.0338 149.919 70.0456L149.927 68.7097V67.6198H151V72.2976H149.961V71.7802L149.957 71.7844Z" fill="#FFF2EC"/>
<path d="M153.273 68.0694C153.545 67.6708 153.918 67.4587 154.533 67.4587C154.804 67.4587 155.118 67.5012 155.381 67.6284L155.169 68.5911C154.991 68.5148 154.813 68.4808 154.618 68.4808C153.804 68.4808 153.341 68.8964 153.316 70.2239C153.307 70.5123 153.307 71.2629 153.307 71.6446V72.3062H152.234V67.6284H153.273V68.0694Z" fill="#FFF2EC"/>
<path d="M158.432 72.4757C156.807 72.4757 155.883 71.3518 155.883 69.965C155.883 68.451 156.981 67.4543 158.432 67.4543C159.539 67.4543 160.785 68.0396 160.887 69.842L160.896 70.4188H157.002C157.155 71.0465 157.664 71.4833 158.432 71.4833C159.034 71.4833 159.556 71.2119 159.708 70.8132L160.747 71.1525C160.416 72.0134 159.462 72.4715 158.436 72.4715L158.432 72.4757ZM159.7 69.49C159.649 68.7436 159.038 68.4425 158.432 68.4425C157.736 68.4425 157.181 68.8412 157.002 69.49H159.7Z" fill="#FFF2EC"/>
<path d="M167.747 66.0123V67.1192H165.351V72.306H164.193V67.1192H161.797V66.0123H167.751H167.747Z" fill="#FFF2EC"/>
<path d="M168.008 69.965C168.008 68.4255 169.106 67.4543 170.557 67.4543C172.007 67.4543 173.11 68.4255 173.11 69.965C173.11 71.5045 172.096 72.4757 170.557 72.4757C169.017 72.4757 168.008 71.4367 168.008 69.965ZM172.049 69.965C172.049 69.1508 171.422 68.4764 170.561 68.4764C169.7 68.4764 169.072 69.1465 169.072 69.965C169.072 70.7835 169.7 71.4536 170.561 71.4536C171.422 71.4536 172.049 70.7835 172.049 69.965Z" fill="#FFF2EC"/>
<path d="M178.893 65.758V72.3062H177.854V71.9245C177.456 72.2892 176.925 72.4758 176.34 72.4758C174.97 72.4758 173.961 71.4367 173.961 69.9651C173.961 68.4935 175.059 67.4544 176.51 67.4544C177.019 67.4544 177.464 67.5732 177.82 67.8107V65.7538H178.893V65.758ZM177.943 69.9651C177.943 68.9345 177.222 68.4765 176.514 68.4765C175.657 68.4765 175.025 69.1466 175.025 69.9651C175.025 70.7836 175.653 71.4537 176.514 71.4537C177.218 71.4537 177.943 70.9957 177.943 69.9651Z" fill="#FFF2EC"/>
<path d="M183.567 71.7505C183.312 72.2 182.795 72.4757 181.926 72.4757C180.895 72.4757 180.047 72.0431 180.047 71.1143C180.047 70.4443 180.496 69.7615 182.095 69.4985C182.468 69.4391 183.024 69.3798 183.516 69.3543C183.448 68.8793 183.202 68.4255 182.426 68.4255C181.892 68.4255 181.345 68.6715 181.039 69.1974L180.174 68.6885C180.768 67.7258 181.586 67.4543 182.426 67.4543C183.855 67.4543 184.542 68.2517 184.585 69.5367C184.593 69.842 184.593 70.8302 184.593 71.2119V72.3018H183.571L183.563 71.7505H183.567ZM182.044 71.496C183.1 71.496 183.457 70.9956 183.516 70.1516C183.05 70.1686 182.35 70.2619 182.01 70.3467C181.519 70.474 181.15 70.7114 181.15 71.0168C181.15 71.3052 181.472 71.4918 182.044 71.4918V71.496Z" fill="#FFF2EC"/>
<path d="M186.64 67.6283L188.078 71.2501L189.516 67.6283H190.673L188.676 72.3061C187.997 73.8626 187.586 74.4308 186.568 74.4308C186.288 74.4308 185.881 74.3884 185.359 74.1764L185.648 73.1628C185.919 73.307 186.191 73.3579 186.394 73.3579C186.971 73.3579 187.276 72.9168 187.51 72.3782L185.487 67.624H186.644L186.64 67.6283Z" fill="#FFF2EC"/>
</svg>
