<svg width="158" height="74" viewBox="0 0 158 74" fill="none" xmlns="http://www.w3.org/2000/svg">
<path d="M38.9632 10.1244C36.5544 9.47653 34.0825 10.8788 33.4412 13.2571C32.9303 15.1528 33.7391 17.0942 35.3065 18.1334C34.913 19.1878 33.8717 19.8487 32.7673 19.777L32.3281 21.4118L39.0393 23.2184L39.4784 21.5835C38.4871 21.0922 37.9175 19.9965 38.1066 18.8878C39.9828 18.7747 41.6568 17.5008 42.1677 15.605C42.8068 13.2267 41.3742 10.7722 38.9654 10.1244H38.9632ZM40.7437 15.2224C40.3132 16.8247 38.6458 17.7703 37.0218 17.3334C35.3978 16.8964 34.4326 15.242 34.863 13.6397C35.2935 12.0375 36.9609 11.0918 38.5849 11.5288C40.2089 11.9658 41.1741 13.6202 40.7437 15.2224Z" fill="#FF7F00"/>
<path d="M32.7673 19.779L32.3281 21.4139L35.6848 22.3161L37.0261 17.3354C35.4022 16.8985 34.4369 15.2441 34.8674 13.6418C35.2978 12.0396 36.9653 11.0939 38.5893 11.5309L38.9675 10.1265C36.5587 9.4786 34.0869 10.8808 33.4456 13.2592C32.9347 15.1549 33.7434 17.0963 35.3109 18.1355C34.9174 19.1899 33.876 19.8508 32.7716 19.779H32.7673Z" fill="#F9EDBF"/>
<path d="M30.9874 59.7893C42.0564 59.7893 51.0296 50.8162 51.0296 39.7472C51.0296 28.6782 42.0564 19.7051 30.9874 19.7051C19.9185 19.7051 10.9453 28.6782 10.9453 39.7472C10.9453 50.8162 19.9185 59.7893 30.9874 59.7893Z" fill="#F9EDBF"/>
<path d="M49.2915 44.6703C51.9772 34.6887 45.9595 24.392 35.8504 21.672C25.7413 18.9519 15.369 24.8385 12.6833 34.82C9.99754 44.8016 16.0153 55.0982 26.1244 57.8183C36.2335 60.5384 46.6057 54.6518 49.2915 44.6703Z" fill="#583A35"/>
<path d="M45.9317 43.7665C48.1248 35.6157 43.2116 27.2078 34.9576 24.9869C26.7036 22.7659 18.2345 27.5731 16.0414 35.7239C13.8482 43.8747 18.7615 52.2826 27.0155 54.5035C35.2695 56.7244 43.7385 51.9173 45.9317 43.7665Z" fill="#F9EDBF"/>
<path d="M33.4688 38.569L37.8081 51.5934L28.7208 41.3039C28.6251 41.1952 28.5512 41.0669 28.5034 40.9278L24.1641 27.9033L33.2514 38.1929C33.3492 38.3016 33.421 38.4298 33.4688 38.569Z" fill="#FF7F00"/>
<path d="M24.1641 27.9033L28.5034 40.9278C28.549 41.0669 28.6229 41.1952 28.7208 41.3039L37.8081 51.5934L24.1662 27.9055L24.1641 27.9033Z" fill="#583A35"/>
<path d="M32.0002 41.5039C32.9835 40.9376 33.3273 39.6916 32.7682 38.7209C32.2091 37.7501 30.9588 37.4223 29.9756 37.9886C28.9924 38.5549 28.6485 39.8008 29.2076 40.7716C29.7667 41.7423 31.017 42.0702 32.0002 41.5039Z" fill="#F9EDBF"/>
<path d="M31.5689 40.756C32.1339 40.4306 32.3315 39.7148 32.0103 39.1571C31.6891 38.5994 30.9707 38.4111 30.4058 38.7365C29.8408 39.0619 29.6432 39.7778 29.9644 40.3354C30.2856 40.8931 31.004 41.0814 31.5689 40.756Z" fill="#583A35"/>
<path d="M33.8581 29.0795L33.6385 31.8839L32.6406 31.6144L33.8581 29.0795Z" fill="#FF7F00"/>
<path d="M28.1094 50.4152L29.3268 47.8803L28.3289 47.6107L28.1094 50.4152Z" fill="#FF7F00"/>
<path d="M41.656 42.617L38.8516 42.3974L39.119 41.4017L41.656 42.617Z" fill="#FF7F00"/>
<path d="M20.3203 36.8755L22.8552 38.0929L23.1226 37.0972L20.3203 36.8755Z" fill="#FF7F00"/>
<path d="M137.092 40.2256V44.2975L139.833 40.2256H141.411V45.9367H140.124V41.8648L137.383 45.9367H135.805V40.2256H137.092Z" fill="#FFF2EC"/>
<path d="M130.123 40.2256V44.2975L132.864 40.2256H134.443V45.9367H133.156V41.8648L130.414 45.9367H128.836V40.2256H130.123Z" fill="#FFF2EC"/>
<path d="M127.753 44.1714C127.41 45.5323 126.205 46.1454 124.897 46.1454C122.914 46.1454 121.781 44.7736 121.781 43.0822C121.781 41.3061 123.016 40.019 124.897 40.019C126.06 40.019 127.327 40.5082 127.753 41.993L126.508 42.4083C126.299 41.6495 125.677 41.2669 124.897 41.2669C123.744 41.2669 123.079 42.0865 123.079 43.0844C123.079 44.0823 123.744 44.9019 124.897 44.9019C125.634 44.9019 126.277 44.5584 126.508 43.7605L127.753 44.1757V44.1714Z" fill="#FFF2EC"/>
<path d="M120.894 44.1714C120.55 45.5323 119.346 46.1454 118.037 46.1454C116.055 46.1454 114.922 44.7736 114.922 43.0822C114.922 41.3061 116.159 40.019 118.037 40.019C119.2 40.019 120.468 40.5082 120.894 41.993L119.648 42.4083C119.439 41.6495 118.818 41.2669 118.039 41.2669C116.887 41.2669 116.222 42.0865 116.222 43.0844C116.222 44.0823 116.887 44.9019 118.039 44.9019C118.776 44.9019 119.42 44.5584 119.648 43.7605L120.894 44.1757V44.1714Z" fill="#FFF2EC"/>
<path d="M113.947 44.5344C113.543 45.5823 112.38 46.1432 111.123 46.1432C109.14 46.1432 108.008 44.7714 108.008 43.08C108.008 41.2321 109.347 40.0168 111.123 40.0168C112.473 40.0168 113.999 40.7343 114.125 42.9344L114.136 43.6409H109.38C109.567 44.4083 110.191 44.9388 111.125 44.9388C111.862 44.9388 112.495 44.6062 112.684 44.1192L113.952 44.5344H113.947ZM109.377 42.4996H112.669C112.606 41.5865 111.858 41.2212 111.121 41.2212C110.269 41.2212 109.595 41.7104 109.375 42.4996H109.377Z" fill="#FFF2EC"/>
<path d="M103.31 37.9407V40.2669C103.653 40.0799 104.027 40.0168 104.368 40.0168C105.823 40.0168 107.275 41.2017 107.275 43.08C107.275 44.9584 105.925 46.1432 104.471 46.1432C104.118 46.1432 103.703 46.0714 103.308 45.8519V48.3237H101.999V45.8519C101.603 46.0693 101.188 46.1432 100.836 46.1432C99.3813 46.1432 98.0312 44.8757 98.0312 43.08C98.0312 41.2843 99.4857 40.0168 100.94 40.0168C101.284 40.0168 101.657 40.0799 101.999 40.2669V37.9407H103.308H103.31ZM99.3313 43.08C99.3313 44.0779 100.057 44.8975 101.003 44.8975C101.347 44.8975 101.721 44.7931 102.001 44.5649V41.5952C101.721 41.3669 101.347 41.2625 101.003 41.2625C100.057 41.2625 99.3313 42.0821 99.3313 43.08ZM103.31 44.5649C103.59 44.7931 103.964 44.8975 104.308 44.8975C105.253 44.8975 105.979 44.0779 105.979 43.08C105.979 42.0821 105.253 41.2625 104.308 41.2625C103.964 41.2625 103.59 41.3669 103.31 41.5952V44.5649Z" fill="#FFF2EC"/>
<path d="M94.2403 46.1432C92.3598 46.1432 91.125 44.8757 91.125 43.08C91.125 41.2843 92.4642 40.0168 94.2403 40.0168C96.0165 40.0168 97.3557 41.2017 97.3557 43.08C97.3557 44.9584 96.1209 46.1432 94.2403 46.1432ZM94.2403 44.8975C95.2904 44.8975 96.0578 44.0779 96.0578 43.08C96.0578 42.0821 95.2882 41.2625 94.2403 41.2625C93.1925 41.2625 92.4229 42.0821 92.4229 43.08C92.4229 44.0779 93.1903 44.8975 94.2403 44.8975Z" fill="#FFF2EC"/>
<path d="M85.5794 40.2235V40.6278C85.9838 40.2235 86.536 40.0148 87.2816 40.0148C89.0578 40.0148 90.397 41.1996 90.397 43.0779C90.397 44.9563 89.16 46.1411 87.386 46.1411C86.7534 46.1411 86.1599 45.9759 85.6838 45.6433V48.3216H84.375V40.2213H85.5794V40.2235ZM87.386 44.8976C88.436 44.8976 89.0991 44.078 89.0991 43.0801C89.0991 42.0822 88.4339 41.2626 87.386 41.2626C86.5229 41.2626 85.599 41.8235 85.599 43.0801C85.599 44.3367 86.5229 44.8976 87.386 44.8976Z" fill="#FFF2EC"/>
<path d="M83.032 40.2256V45.9367H81.745V41.4496H78.5058V45.9367H77.2188V40.2256H83.0342H83.032Z" fill="#FFF2EC"/>
<path d="M68.0763 46.1432C66.1958 46.1432 64.9609 44.8757 64.9609 43.08C64.9609 41.2843 66.3001 40.0168 68.0763 40.0168C69.8524 40.0168 71.1916 41.2017 71.1916 43.08C71.1916 44.9584 69.9568 46.1432 68.0763 46.1432ZM68.0763 44.8975C69.1242 44.8975 69.8938 44.0779 69.8938 43.08C69.8938 42.0821 69.1242 41.2625 68.0763 41.2625C67.0284 41.2625 66.2588 42.0821 66.2588 43.08C66.2588 44.0779 67.0284 44.8975 68.0763 44.8975Z" fill="#FFF2EC"/>
<path d="M64.0164 40.2256V45.9367H62.7294V41.4496H59.4901V45.9367H58.2031V40.2256H64.0186H64.0164Z" fill="#FFF2EC"/>
<path d="M138.897 32.9383L138.875 31.5165C138.212 32.6753 136.864 33.3775 134.609 33.3775C131.935 33.3775 129.727 32.2622 129.727 29.8751C129.727 28.1468 130.898 26.3967 135.053 25.7185C136.025 25.5663 137.462 25.4119 138.744 25.3467C138.568 24.1206 137.927 22.9618 135.916 22.9618C134.525 22.9618 133.109 23.5966 132.314 24.9532L130.059 23.6401C131.607 21.1683 133.727 20.4661 135.916 20.4661C139.629 20.4661 141.418 22.5227 141.529 25.8272C141.551 26.6141 141.551 29.1534 141.551 30.1382V32.9383H138.899H138.897ZM132.598 29.6338C132.598 30.3773 133.438 30.86 134.918 30.86C137.657 30.86 138.586 29.5686 138.742 27.4033C137.527 27.4468 135.714 27.6881 134.831 27.9077C133.548 28.2359 132.598 28.849 132.598 29.636V29.6338Z" fill="#FF7F00"/>
<path d="M115.789 20.903H128.827V23.5726H123.722V32.9382H120.894V23.5726H115.789V20.903Z" fill="#FF7F00"/>
<path d="M108.162 33.3753C104.162 33.3753 101.531 30.7056 101.531 26.9207C101.531 23.1357 104.381 20.4661 108.162 20.4661C111.943 20.4661 114.793 22.9596 114.793 26.9207C114.793 30.8817 112.162 33.3753 108.162 33.3753ZM108.162 30.7513C110.395 30.7513 112.03 29.0229 112.03 26.9207C112.03 24.8184 110.395 23.0901 108.162 23.0901C105.929 23.0901 104.294 24.8184 104.294 26.9207C104.294 29.0229 105.929 30.7513 108.162 30.7513Z" fill="#FF7F00"/>
<path d="M93.3495 21.69C97.1279 21.69 99.9802 23.6162 99.9802 27.3576C99.9802 31.0991 97.3496 33.3753 93.3495 33.3753C89.3493 33.3753 86.7188 30.9252 86.7188 27.3576C86.7188 26.1989 86.7188 25.4097 86.8296 23.8553C87.1383 19.6095 89.371 16.9398 93.0168 16.9398C95.0495 16.9398 96.5974 16.7637 98.3866 15.868L99.3801 18.1225C97.2148 19.0638 95.4908 19.3486 93.5234 19.3486C91.1146 19.3486 89.7884 20.6617 89.5906 23.2227C90.3646 22.1509 91.5363 21.69 93.3473 21.69H93.3495ZM93.3495 30.7491C95.8017 30.7491 97.217 29.2382 97.217 27.3576C97.217 25.4771 95.8039 23.9662 93.3495 23.9662C90.895 23.9662 89.4819 25.4771 89.4819 27.3576C89.4819 29.2382 90.8972 30.7491 93.3495 30.7491Z" fill="#FF7F00"/>
<path d="M82.0706 32.9383L82.0488 31.5165C81.3857 32.6753 80.0379 33.3775 77.7834 33.3775C75.1094 33.3775 72.8984 32.2622 72.8984 29.8751C72.8984 28.1468 74.0702 26.3967 78.2247 25.7185C79.1965 25.5663 80.6335 25.4119 81.9162 25.3467C81.7401 24.1206 81.0988 22.9618 79.0878 22.9618C77.6965 22.9618 76.2812 23.5966 75.4855 24.9532L73.2311 23.6401C74.7789 21.1683 76.8986 20.4661 79.0878 20.4661C82.801 20.4661 84.5902 22.5227 84.7011 25.8272C84.7228 26.6141 84.7228 29.1534 84.7228 30.1382V32.9383H82.0706ZM75.7725 29.6338C75.7725 30.3773 76.6116 30.86 78.0921 30.86C80.8336 30.86 81.7597 29.5686 81.9162 27.4033C80.7009 27.4468 78.8878 27.6881 78.0052 27.9077C76.7225 28.2359 75.7725 28.849 75.7725 29.636V29.6338Z" fill="#FF7F00"/>
<path d="M60.7663 20.903V21.7574C61.6272 20.903 62.799 20.4661 64.3903 20.4661C68.1688 20.4661 71.021 22.9596 71.021 26.9207C71.021 30.8817 68.3905 33.3753 64.6121 33.3753C63.2642 33.3753 62.0033 33.0253 60.988 32.3252V36.7993H58.2031V20.903H60.7663ZM64.6121 30.7513C66.8448 30.7513 68.2579 29.0229 68.2579 26.9207C68.2579 24.8184 66.8426 23.0901 64.6121 23.0901C62.7772 23.0901 60.8119 24.2727 60.8119 26.9207C60.8119 29.5686 62.7794 30.7513 64.6121 30.7513Z" fill="#FF7F00"/>
<path d="M102.681 52.7784C102.863 52.6567 103.089 52.5958 103.352 52.5958C104.098 52.5958 104.661 53.0936 104.661 53.8828C104.661 54.672 104.142 55.1698 103.442 55.1698C103.142 55.1698 102.87 55.0742 102.665 54.8872V55.0829H102.133V51.7262H102.683V52.7806L102.681 52.7784ZM104.113 53.8806C104.113 53.4632 103.835 53.1176 103.394 53.1176C103.031 53.1176 102.644 53.3524 102.644 53.8806C102.644 54.4089 103.031 54.6437 103.394 54.6437C103.833 54.6437 104.113 54.3002 104.113 53.8806Z" fill="#FFF2EC"/>
<path d="M105.625 52.6826L106.362 54.5392L107.099 52.6826H107.693L106.669 55.0805C106.321 55.8784 106.11 56.1697 105.588 56.1697C105.445 56.1697 105.236 56.148 104.969 56.0393L105.117 55.5197C105.256 55.5936 105.395 55.6197 105.499 55.6197C105.795 55.6197 105.951 55.3936 106.071 55.1175L105.034 52.6804H105.627L105.625 52.6826Z" fill="#FFF2EC"/>
<path d="M112.92 51.8542V52.4217H110.872V53.2152H112.659V53.7652H110.872V55.0805H110.305V51.8542H112.92Z" fill="#FFF2EC"/>
<path d="M115.335 54.8132C115.157 55.0437 114.894 55.1654 114.515 55.1654C113.783 55.1654 113.409 54.711 113.387 53.8784C113.383 53.7219 113.383 53.4349 113.383 53.2371V52.6783H113.928V53.2371C113.928 53.4327 113.928 53.7653 113.933 53.9219C113.946 54.3393 114.124 54.6415 114.561 54.6415C114.935 54.6415 115.316 54.4284 115.316 53.9219L115.32 53.2371V52.6783H115.87V55.0763H115.337V54.811L115.335 54.8132Z" fill="#FFF2EC"/>
<path d="M116.8 52.6826V52.0282H117.358V52.6826H118.004V53.1804H117.358L117.363 53.9913C117.376 54.4805 117.489 54.6196 117.75 54.6196C117.828 54.6196 117.963 54.6066 118.11 54.5631L118.258 55.0609C118.019 55.1479 117.817 55.1696 117.66 55.1696C116.963 55.1696 116.819 54.7283 116.802 54.0805L116.797 53.1826H116.273V52.6847H116.797L116.8 52.6826Z" fill="#FFF2EC"/>
<path d="M120.569 54.8132C120.391 55.0437 120.128 55.1654 119.75 55.1654C119.017 55.1654 118.643 54.711 118.622 53.8784C118.617 53.7219 118.617 53.4349 118.617 53.2371V52.6783H119.163V53.2371C119.163 53.4327 119.163 53.7653 119.167 53.9219C119.18 54.3393 119.359 54.6415 119.796 54.6415C120.169 54.6415 120.55 54.4284 120.55 53.9219L120.554 53.2371V52.6783H121.104V55.0763H120.572V54.811L120.569 54.8132Z" fill="#FFF2EC"/>
<path d="M122.267 52.9088C122.406 52.7044 122.597 52.5957 122.913 52.5957C123.052 52.5957 123.213 52.6174 123.347 52.6827L123.239 53.1762C123.147 53.137 123.056 53.1196 122.956 53.1196C122.539 53.1196 122.302 53.3327 122.289 54.0132C122.284 54.161 122.284 54.5458 122.284 54.7414V55.0806H121.734V52.6827H122.267V52.9088Z" fill="#FFF2EC"/>
<path d="M124.916 55.1675C124.083 55.1675 123.609 54.5914 123.609 53.8805C123.609 53.1044 124.172 52.5935 124.916 52.5935C125.483 52.5935 126.123 52.8935 126.175 53.8175L126.179 54.1131H124.183C124.262 54.4349 124.522 54.6588 124.916 54.6588C125.225 54.6588 125.492 54.5197 125.57 54.3153L126.103 54.4892C125.933 54.9306 125.444 55.1654 124.918 55.1654L124.916 55.1675ZM125.566 53.637C125.54 53.2544 125.227 53.1 124.916 53.1C124.559 53.1 124.275 53.3044 124.183 53.637H125.566Z" fill="#FFF2EC"/>
<path d="M129.683 51.8542V52.4217H128.455V55.0805H127.861V52.4217H126.633V51.8542H129.685H129.683Z" fill="#FFF2EC"/>
<path d="M129.82 53.8805C129.82 53.0914 130.383 52.5935 131.127 52.5935C131.87 52.5935 132.436 53.0914 132.436 53.8805C132.436 54.6697 131.916 55.1675 131.127 55.1675C130.338 55.1675 129.82 54.6349 129.82 53.8805ZM131.892 53.8805C131.892 53.4631 131.57 53.1174 131.129 53.1174C130.688 53.1174 130.366 53.4609 130.366 53.8805C130.366 54.3001 130.688 54.6436 131.129 54.6436C131.57 54.6436 131.892 54.3001 131.892 53.8805Z" fill="#FFF2EC"/>
<path d="M135.403 51.7239V55.0805H134.871V54.8849C134.666 55.0718 134.395 55.1675 134.095 55.1675C133.392 55.1675 132.875 54.6348 132.875 53.8805C132.875 53.1261 133.438 52.5935 134.182 52.5935C134.442 52.5935 134.671 52.6543 134.853 52.7761V51.7217H135.403V51.7239ZM134.916 53.8805C134.916 53.3522 134.547 53.1174 134.184 53.1174C133.745 53.1174 133.421 53.4609 133.421 53.8805C133.421 54.3 133.742 54.6435 134.184 54.6435C134.545 54.6435 134.916 54.4087 134.916 53.8805Z" fill="#FFF2EC"/>
<path d="M137.797 54.7958C137.666 55.0262 137.401 55.1675 136.955 55.1675C136.427 55.1675 135.992 54.9458 135.992 54.4697C135.992 54.1262 136.223 53.7762 137.042 53.6414C137.234 53.6109 137.518 53.5805 137.771 53.5675C137.736 53.324 137.61 53.0914 137.212 53.0914C136.938 53.0914 136.657 53.2174 136.501 53.487L136.057 53.2261C136.362 52.7326 136.781 52.5935 137.212 52.5935C137.944 52.5935 138.297 53.0022 138.318 53.6609C138.323 53.8175 138.323 54.324 138.323 54.5197V55.0784H137.799L137.794 54.7958H137.797ZM137.016 54.6653C137.557 54.6653 137.74 54.4088 137.771 53.9762C137.531 53.9849 137.173 54.0327 136.999 54.0762C136.747 54.1414 136.557 54.2631 136.557 54.4197C136.557 54.5675 136.723 54.6632 137.016 54.6632V54.6653Z" fill="#FFF2EC"/>
<path d="M139.367 52.6826L140.104 54.5392L140.841 52.6826H141.435L140.411 55.0805C140.063 55.8784 139.852 56.1697 139.331 56.1697C139.187 56.1697 138.978 56.148 138.711 56.0393L138.859 55.5197C138.998 55.5936 139.137 55.6197 139.241 55.6197C139.537 55.6197 139.694 55.3936 139.813 55.1175L138.776 52.6804H139.37L139.367 52.6826Z" fill="#FFF2EC"/>
</svg>
